<svg width="300" height="300" viewBox="0 0 300 300" fill="none" xmlns="http://www.w3.org/2000/svg">
<mask id="mask0_43_213" style="mask-type:alpha" maskUnits="userSpaceOnUse" x="0" y="0" width="300" height="300">
<rect width="300" height="300" fill="#D9D9D9"/>
</mask>
<g mask="url(#mask0_43_213)">
<path d="M58.6669 98.1236C57.7738 95.1756 57.7242 92.1089 61.5576 90.873C65.1432 89.7205 67.0913 91.8725 68.0844 94.952C70.1184 100.764 72.2683 106.593 74.1704 112.505C74.9272 114.728 74.7883 116.592 73.6695 117.85C71.432 120.365 66.4098 119.083 65.1848 115.971C62.5711 110.079 60.5531 104.151 58.6669 98.1236ZM60.1176 127.865C58.6288 124.952 56.2054 123.676 53.1837 125.024C50.2779 126.388 49.5636 128.996 51.0364 132.024C53.6139 137.323 55.8116 142.805 58.521 148.005C62.1667 154.981 65.9443 161.858 70.1176 168.437C70.9859 169.852 73.9528 170.614 75.7716 170.277C76.1354 170.21 76.5152 170.027 76.9108 169.728C78.6571 168.204 78.8076 165.401 77.9349 163.162C72.1117 151.412 66.0566 139.63 60.1176 127.865ZM97.2594 167.831C100.409 165.559 98.7242 163.209 97.1877 160.642C94.2305 155.526 91.2575 150.525 88.68 145.226C85.5184 139.023 83.0003 132.437 79.5909 126.317C78.8907 125.397 78.0587 124.576 77.0629 124.085C76.0831 123.479 74.9396 123.204 73.8801 123.175C73.5322 123.127 73.2686 123.326 72.8889 123.508C70.315 125.036 69.9051 128.864 71.1779 131.629C75.3804 140.565 79.6989 149.518 84.0332 158.355C85.422 161.136 86.9426 163.817 88.727 166.3C90.9114 169.308 93.9783 170.203 97.2594 167.831ZM168.11 166.436C166.878 171.091 169.798 175.614 174.589 176.865C190.103 180.89 205.533 184.669 220.719 189.356C237.382 194.482 253.425 201.523 268.402 210.3C268.734 210.464 268.538 211.025 268.09 210.846C235.424 196.683 200.717 187.888 165.361 184.652C164.534 184.656 163.69 184.775 162.931 185.14C162.171 185.506 161.512 186.004 160.953 186.633C157.305 191.66 161.051 198.768 167.212 199.502L207.294 204.449C207.642 204.497 207.842 204.76 207.794 205.107C207.762 205.338 207.499 205.537 207.251 205.62L152.735 206.8C170.567 207.733 188.187 209.342 205.731 212.354C209.194 212.95 208.568 216.63 205.042 216.496C174.133 215.287 143.453 216.698 113.625 225.642C70.6099 238.532 24.4922 213.096 13.5195 170.153C2.34225 126.122 29.4176 82.3144 73.6782 73.2454C77.332 72.4555 80.9379 72.0122 84.5757 71.3378C85.783 71.1515 86.9743 71.0805 88.1657 71.0097C89.589 70.9709 90.9962 71.0476 92.5036 71.2558C98.9808 72.2681 105.39 72.9178 111.671 74.4916C116.925 75.8057 121.82 78.0117 126.831 80.2338C135.424 83.8922 143.69 88.2117 152.431 91.6552C180.447 102.704 207.612 115.636 232.236 133.278C244.931 142.328 257.577 151.724 269.664 161.75C254.847 151.818 239.749 142.201 224.129 133.805C218.518 130.794 214.959 136.894 220.11 140.665L225.81 144.748C225.91 144.879 225.894 144.995 225.762 145.094C225.762 145.094 225.63 145.194 225.53 145.062L184.197 126.054C175.752 122.181 166.424 129.837 169.104 138.681C169.724 140.179 171.088 141.426 172.647 142.112C182.848 146.111 193.377 149.448 203.266 153.992C214.715 159.221 226.28 164.467 236.81 171.218C254.083 182.195 270.717 194.378 287.53 206.116C288.51 206.722 287.803 207.566 286.823 206.96C253.768 185.329 217.203 169.451 178.818 159.912C174.159 158.563 169.343 161.781 168.11 166.436ZM158.699 158.428C161.517 134.573 153.315 114.374 135.188 98.4535C112.205 78.3315 77.0221 76.4144 51.84 93.6501C49.1024 95.5081 48.1677 97.1444 49.4927 100.387C51.4701 104.897 52.9517 109.574 54.5653 114.152C55.6743 117.247 55.276 120.135 51.5745 121.271C48.2368 122.34 46.2727 120.303 45.2478 117.455C43.6864 113.355 42.257 109.156 40.7116 104.941C40.6275 104.694 40.4275 104.431 40.2115 104.284C39.5477 103.957 38.8041 104.207 38.4926 104.753C38.1651 105.414 37.8536 105.959 37.4101 106.604C23.5821 123.76 19.0185 143.137 23.3875 164.572C29.9851 197.26 60.2815 220.04 95.5424 217.966C111.51 216.994 126.471 210.469 138.015 199.588C149.544 188.823 156.88 174.183 158.699 158.428ZM88.8137 179.376C87.7658 178.407 85.0511 178.385 83.5482 179.002C81.054 179.952 81.2558 183.628 82.5923 185.931C85.4495 190.915 91.5939 197.766 94.0447 197.987C95.568 198.08 97.8985 197.46 98.7694 196.286C99.6563 194.996 100.055 192.109 99.2544 191.057C95.922 186.948 92.5578 183.071 88.8137 179.376ZM109.467 178.697C106.491 176.286 99.913 181.144 101.95 184.368C104.47 188.364 108.03 191.68 111.226 195.064C112.975 196.953 116.928 196.558 118.406 194.408C118.538 194.309 118.57 194.078 118.586 193.962C118.957 192.13 118.828 189.641 117.859 188.095C115.507 184.593 112.643 181.372 109.467 178.697Z" fill="white"/>
</g>
</svg>
