<svg width="300" height="300" viewBox="0 0 300 300" fill="none" xmlns="http://www.w3.org/2000/svg">
<mask id="mask0_43_218" style="mask-type:alpha" maskUnits="userSpaceOnUse" x="0" y="0" width="300" height="300">
<rect width="300" height="300" fill="#D9D9D9"/>
</mask>
<g mask="url(#mask0_43_218)">
<path d="M230.5 285C219.25 285 209.688 281.062 201.812 273.188C193.938 265.312 190 255.75 190 244.5C190 242.925 190.112 241.291 190.337 239.599C190.562 237.907 190.9 236.391 191.35 235.05L96.175 179.7C92.35 183.075 88.075 185.721 83.35 187.638C78.625 189.555 73.675 190.509 68.5 190.5C57.25 190.5 47.6875 186.562 39.8125 178.688C31.9375 170.812 28 161.25 28 150C28 138.75 31.9375 129.188 39.8125 121.312C47.6875 113.438 57.25 109.5 68.5 109.5C73.675 109.5 78.625 110.459 83.35 112.376C88.075 114.293 92.35 116.934 96.175 120.3L191.35 64.95C190.9 63.6 190.562 62.0835 190.337 60.4005C190.112 58.7175 190 57.084 190 55.5C190 44.25 193.938 34.6875 201.812 26.8125C209.688 18.9375 219.25 15 230.5 15C241.75 15 251.312 18.9375 259.188 26.8125C267.062 34.6875 271 44.25 271 55.5C271 66.75 267.062 76.3125 259.188 84.1875C251.312 92.0625 241.75 96 230.5 96C225.325 96 220.375 95.046 215.65 93.138C210.925 91.23 206.65 88.584 202.825 85.2L107.65 140.55C108.1 141.9 108.438 143.421 108.663 145.113C108.888 146.805 109 148.434 109 150C109 151.575 108.888 153.208 108.663 154.9C108.438 156.592 108.1 158.109 107.65 159.45L202.825 214.8C206.65 211.425 210.925 208.783 215.65 206.875C220.375 204.967 225.325 204.009 230.5 204C241.75 204 251.312 207.938 259.188 215.812C267.062 223.688 271 233.25 271 244.5C271 255.75 267.062 265.312 259.188 273.188C251.312 281.062 241.75 285 230.5 285Z" fill="black"/>
</g>
</svg>
