<svg width="300" height="300" viewBox="0 0 300 300" fill="none" xmlns="http://www.w3.org/2000/svg">
<mask id="mask0_43_214" style="mask-type:alpha" maskUnits="userSpaceOnUse" x="0" y="0" width="300" height="300">
<rect width="300" height="300" fill="#D9D9D9"/>
</mask>
<g mask="url(#mask0_43_214)">
<path d="M280 126.64C280.02 120.429 277.856 115.333 273.658 111.01C266.237 103.356 256.904 98.8142 247.015 95.7498C235.979 92.3297 224.665 89.7988 213.433 87.0422C211.764 86.6318 211.154 86.1393 211.242 84.4361C211.364 82.0625 211.276 79.6821 211.276 77.0349C212.361 76.9802 213.257 76.9049 214.152 76.9049C222.19 76.8981 230.227 76.8776 238.265 76.9049C240.585 76.9118 242.687 76.5561 243.929 74.3057C245.204 71.98 244.471 69.9005 243.142 67.8485C241.202 64.8456 239.425 61.7401 237.444 58.7783C236.596 57.5129 236.658 56.5757 237.471 55.3445C239.527 52.2185 241.419 48.9831 243.427 45.8297C244.668 43.8871 245.082 41.8897 243.908 39.8172C242.782 37.8198 240.937 37.2315 238.747 37.2384C228.172 37.2726 217.591 37.2384 207.016 37.2589C202.974 37.2657 201.143 39.1194 201.136 43.2373C201.109 56.0354 201.122 68.8403 201.122 81.6384C201.122 82.6439 201.122 83.6494 201.122 84.1966C180.156 83.1638 159.421 82.1446 138.496 81.1185V66.6583H141.257C149.295 66.6583 157.332 66.6377 165.37 66.6719C167.683 66.6788 169.772 66.3368 171.054 64.1C172.397 61.7538 171.59 59.7086 170.281 57.6633C168.348 54.6605 166.557 51.5618 164.59 48.5795C163.783 47.3551 163.701 46.4453 164.549 45.1731C166.672 41.9923 168.653 38.7159 170.62 35.4257C173.218 31.0822 170.986 27.0464 165.953 27.0259C155.379 26.9849 144.797 26.9985 134.223 27.0259C130.065 27.0327 128.186 28.9343 128.18 33.1616C128.159 48.5248 128.173 63.8811 128.173 79.2443V82.3224C107.037 83.6015 86.2141 86.1324 65.6282 91.6457V77.0623C66.5642 77.0076 67.4528 76.9118 68.3413 76.9049C76.379 76.8913 84.4166 76.8707 92.4543 76.9049C94.8758 76.9186 97.0463 76.515 98.2604 74.1141C99.3999 71.8568 98.6606 69.8527 97.3854 67.8827C95.4523 64.8798 93.6549 61.788 91.6878 58.8057C90.8807 57.5813 90.8196 56.6441 91.6471 55.3855C93.7566 52.1912 95.7508 48.9215 97.7178 45.6382C100.302 41.3288 98.0366 37.2726 93.0241 37.2521C82.7888 37.2179 72.5467 37.2384 62.3114 37.2384C56.8987 37.2384 55.3183 38.7911 55.3183 44.1881C55.3115 60.1464 55.2776 76.1046 55.3657 92.0561C55.3793 94.0945 54.7485 94.9085 52.8629 95.7088C46.955 98.2123 41.0268 100.75 35.431 103.862C28.0716 107.946 22.2655 113.651 20 122.228V234.36C23.2625 245.777 32.1888 251.529 41.9221 256.304C56.2678 263.343 71.6581 266.961 87.2654 269.656C116.839 274.752 146.615 275.86 176.534 273.904C196.578 272.597 216.404 269.896 235.803 264.519C247.083 261.393 258.084 257.494 267.757 250.613C273.468 246.55 278.263 241.686 279.64 234.374C279.925 232.883 279.939 231.323 279.939 229.791C279.952 195.405 279.905 161.026 280 126.64ZM211.419 47.5671H230.282C228.959 49.756 227.799 51.7739 226.538 53.7234C225.086 55.9738 225.072 58.149 226.517 60.4063C227.738 62.3079 228.884 64.271 230.234 66.4873H211.419V47.5671ZM65.7164 47.6424H84.5387C83.1211 49.9339 81.8934 51.9517 80.6318 53.9491C79.3159 56.0285 79.3024 58.0943 80.6047 60.1805C81.8459 62.1711 83.0804 64.1753 84.5048 66.4873H65.7164V47.6424ZM138.469 37.3136H157.4C156.111 39.4478 155.026 41.4041 153.785 43.251C152.164 45.6587 152.123 47.9502 153.744 50.3716C154.958 52.1775 156.023 54.0791 157.346 56.2474H138.469V37.3136ZM111.772 262.7C108.272 262.303 104.86 261.968 101.469 261.509C84.7693 259.245 68.2124 256.195 52.5576 249.703C46.8261 247.33 41.3863 244.094 36.1364 240.742C31.8361 237.993 29.6859 233.806 30.0929 228.327C30.4388 223.697 30.1607 219.018 30.1607 214.585C35.7091 217.472 41.0132 220.632 46.6227 223.074C60.5953 229.169 75.3819 232.404 90.3448 234.839C97.4193 235.988 104.541 236.843 111.779 237.849L111.772 262.7ZM30.1607 144.254C30.1607 143.939 30.2353 143.625 30.2489 143.529C35.5327 146.34 40.8098 149.104 46.0393 151.97C46.548 152.25 47.0093 153.146 47.0093 153.755C47.05 172.839 47.0364 191.924 47.0161 211.008C47.0161 211.234 46.8804 211.459 46.7244 211.959C41.271 209.229 35.9058 206.514 32.2769 201.486C31.151 199.927 30.2692 197.772 30.2489 195.884C30.0929 178.674 30.1607 161.464 30.1607 144.254ZM54.1109 143.939C56.3153 140.615 59.5236 138.549 62.8608 136.737C73.3131 131.052 84.6676 128.063 96.2323 125.867C122.319 120.915 148.616 120.149 175.042 122.119C191.524 123.35 207.783 125.799 223.546 130.963C230.234 133.152 236.725 135.806 242.348 140.218C243.671 141.258 245.007 142.291 246.554 143.502C211.412 162.62 91.7828 162.647 54.1109 143.939ZM144.736 168.92V191.185C125.453 195.405 114.478 207.328 111.731 227.383C106.854 226.809 101.944 226.227 96.8632 225.632V165.383C112.782 166.56 128.668 167.73 144.736 168.92ZM86.4311 163.502V223.779C83.718 223.238 81.093 222.848 78.5359 222.185C72.004 220.488 65.4993 218.662 58.9878 216.897C57.8347 216.583 57.17 216.076 57.1768 214.633C57.231 195.542 57.2174 176.444 57.2242 157.353C57.2242 157.107 57.326 156.861 57.3938 156.539C67.0526 158.858 76.6774 161.156 86.4311 163.502ZM177.816 263.575C159.157 264.936 140.768 264.916 122.462 263.602C122.292 263.308 122.136 263.165 122.136 263.021C122.136 251.174 121.763 239.313 122.231 227.486C122.808 212.862 135.274 201.37 149.891 201.247C164.366 201.124 177.023 212.567 177.708 227.288C178.264 239.265 177.816 251.29 177.816 263.575ZM177.966 203.429C171.82 196.753 164.237 192.758 155.196 191.397V168.927C171.244 167.743 187.143 166.574 203.279 165.383C203.279 167.141 203.238 169.262 203.286 171.376C203.361 174.604 205.538 176.916 208.407 176.875C211.201 176.834 213.318 174.618 213.406 171.499C213.481 168.858 213.419 166.218 213.419 163.55C223.153 161.204 232.785 158.885 242.647 156.505C242.681 157.305 242.748 158.126 242.748 158.947C242.748 177.203 242.721 195.467 242.796 213.723C242.803 215.646 242.362 216.631 240.388 217.116C231.937 219.189 223.526 221.405 215.095 223.546C214.634 223.662 214.125 223.608 213.413 223.642C213.413 221.733 213.481 219.955 213.399 218.176C213.263 215.112 211.039 212.896 208.265 212.944C205.47 212.985 203.374 215.215 203.286 218.32C203.218 220.536 203.238 222.753 203.205 224.969C203.205 225.119 203.069 225.27 202.893 225.639C198.104 226.227 193.193 226.829 188.058 227.459C187.265 218.122 184.118 210.098 177.966 203.429ZM269.758 231.597C269.67 235.414 267.194 237.993 264.508 240.284C259.271 244.751 253.147 247.651 246.811 250.086C229.868 256.584 212.205 259.902 194.278 262.036C192.352 262.262 190.419 262.46 188.262 262.693V237.863C216.499 234.087 244.797 230.523 269.792 214.243C269.792 220.174 269.893 225.885 269.758 231.597ZM266.834 202.69C263.07 206.856 258.281 209.462 253.052 212.061C252.991 210.892 252.909 210.084 252.909 209.27C252.902 191.123 252.923 172.976 252.875 154.829C252.875 153.098 253.303 152.175 254.978 151.347C259.95 148.905 264.772 146.156 269.805 143.44V145.731C269.805 162.004 269.758 178.277 269.846 194.55C269.86 197.738 268.91 200.399 266.834 202.69ZM267.831 130.334C264.637 134.691 260.133 137.338 255.493 139.856C249.253 130.225 239.683 125.929 229.766 122.297C216.194 117.324 202.065 114.759 187.774 113.042C168.32 110.709 148.806 110.278 129.265 111.523C107.777 112.898 86.5465 115.805 66.32 123.802C63.1863 125.04 60.1476 126.579 57.1903 128.214C52.171 130.991 47.7418 134.513 44.2554 140.417C40.3417 137.304 36.367 134.678 33.0502 131.387C29.0822 127.447 28.8991 123.09 32.8942 119.191C36.5366 115.634 40.7962 112.454 45.2932 110.101C57.7736 103.575 71.3461 100.258 85.0814 97.6924C115.435 92.0356 146.039 90.9206 176.792 92.9521C196.917 94.286 216.797 97.0495 236.189 102.816C244.39 105.258 252.468 108.103 259.658 112.871C262.582 114.807 265.342 117.201 267.642 119.855C270.673 123.35 270.551 126.627 267.831 130.334Z" fill="white"/>
<path d="M208.577 200.07C211.304 199.947 213.488 197.56 213.393 194.81C213.298 192.094 210.897 189.81 208.211 189.878C205.504 189.953 203.252 192.313 203.286 195.049C203.32 197.95 205.694 200.2 208.577 200.07Z" fill="black"/>
</g>
</svg>
