<svg width="300" height="300" viewBox="0 0 300 300" fill="none" xmlns="http://www.w3.org/2000/svg">
<mask id="mask0_43_216" style="mask-type:alpha" maskUnits="userSpaceOnUse" x="0" y="0" width="300" height="300">
<rect width="300" height="300" fill="#D9D9D9"/>
</mask>
<g mask="url(#mask0_43_216)">
<path d="M53.0316 196.576L150 121.183L246.969 196.576C240.504 214.223 231.2 230.142 219.055 244.331C206.911 258.521 192.809 269.744 176.75 278V207.969C176.75 204.171 175.466 200.99 172.898 198.426C170.33 195.861 167.156 194.574 163.375 194.565H136.625C132.836 194.565 129.657 195.852 127.089 198.426C124.521 200.999 123.241 204.18 123.25 207.969V278C107.2 269.735 93.0985 258.512 80.9451 244.331C68.7918 230.151 59.4872 214.232 53.0316 196.576ZM43.0003 141.958V78.9633C43.0003 73.3787 44.6187 68.2989 47.8555 63.724C51.0922 59.149 55.2697 55.8519 60.3878 53.8325L140.638 23.6754C143.758 22.5585 146.879 22 150 22C153.121 22 156.242 22.5585 159.363 23.6754L239.613 53.8325C244.74 55.8429 248.921 59.1401 252.158 63.724C255.395 68.3078 257.009 73.3876 257 78.9633V141.958C257 146.426 256.777 150.84 256.331 155.2C255.885 159.561 255.328 163.971 254.659 168.429L166.385 100.073C161.48 96.2757 156.019 94.377 150 94.377C143.981 94.377 138.52 96.2757 133.616 100.073L45.341 168.429C44.4493 163.962 43.8341 159.552 43.4952 155.2C43.1564 150.849 42.9914 146.435 43.0003 141.958Z" fill="black"/>
</g>
</svg>
